<svg width="24" height="24" viewBox="0 0 24 24" fill="none" xmlns="http://www.w3.org/2000/svg">
<path d="M13.8452 10.2485L10.4996 7.81769L7.1541 10.2485M13.8452 10.2485L16.563 9.30723M13.8452 10.2485C13.8452 10.2485 12.5066 11.1252 11.8598 11.8793C11.1866 12.6643 10.5 14.1823 10.5 14.1823L8.43197 14.1812L7.1541 10.2485M7.1541 10.2485L4.43855 9.30723M7.38978 18.3733C8.34549 18.7773 10.3967 19 11.5 19M2.55711 10.0417C2.51939 10.3552 2.5 10.6752 2.5 10.9995C2.5 13.1631 3.35874 15.1251 4.75298 16.5657M2.55711 10.0417C2.73704 8.52782 3.34061 7.14368 4.24568 6.01126L4.43855 9.30723M2.55711 10.0417L4.43855 9.30723M8.33206 3.29858C6.69862 3.75758 5.27637 4.72191 4.24523 6.01272M16.7548 6.01272C15.7237 4.72191 14.3015 3.75758 12.668 3.29858M6.80347 16.5669L7.39069 18.3749C6.3908 17.9525 5.4965 17.334 4.75305 16.5669H6.80347ZM6.80347 16.5669L8.4321 14.1823M16.563 9.30723L18.4442 10.0421C18.2632 8.52822 17.6599 7.14368 16.7559 6.01126L16.563 9.30723ZM10.4999 4.8726L8.33206 3.29735C9.02163 3.1034 9.74892 2.99997 10.4999 2.99997C11.2509 2.99997 11.9782 3.1034 12.6678 3.29735L10.4999 4.8726ZM10.4999 4.8726L10.4996 7.81903M17.8333 13.6667H16M14.1667 17.3334H16M16 13.6667H15.0833C14.5771 13.6667 14.1667 14.0771 14.1667 14.5834C14.1667 15.0896 14.5771 15.5 15.0833 15.5H16M16 13.6667V12.4445M16 13.6667V15.5M16 17.3334H16.9167C17.4229 17.3334 17.8333 16.923 17.8333 16.4167C17.8333 15.9104 17.4229 15.5 16.9167 15.5H16M16 17.3334V18.5556M16 17.3334V15.5M21.5 15.5C21.5 18.5376 19.0376 21 16 21C12.9624 21 10.5 18.5376 10.5 15.5C10.5 12.4625 12.9624 10 16 10C19.0376 10 21.5 12.4625 21.5 15.5Z" stroke="#201522" stroke-linecap="round" stroke-linejoin="round"/>
</svg>
