<svg width="24" height="24" viewBox="0 0 24 24" fill="none" xmlns="http://www.w3.org/2000/svg">
<path d="M12.2 3L13.4979 5.63344L16.4 6.05573L14.3 8.10557L14.7957 11L12.2 9.63344L9.60426 11L10.1 8.10557L8 6.05573L10.9021 5.63344L12.2 3Z" stroke="#201522" stroke-width="1.5" stroke-linecap="round" stroke-linejoin="round"/>
<path d="M6.2 13L7.49787 15.6334L10.4 16.0557L8.3 18.1056L8.79574 21L6.2 19.6334L3.60426 21L4.1 18.1056L2 16.0557L4.90213 15.6334L6.2 13Z" stroke="#201522" stroke-width="1.5" stroke-linecap="round" stroke-linejoin="round"/>
<path d="M17.8 13L19.0978 15.6334L22 16.0557L19.9 18.1056L20.3957 21L17.8 19.6334L15.2042 21L15.7 18.1056L13.6 16.0557L16.5021 15.6334L17.8 13Z" stroke="#201522" stroke-width="1.5" stroke-linecap="round" stroke-linejoin="round"/>
</svg>
