<svg width="24" height="24" viewBox="0 0 24 24" fill="none" xmlns="http://www.w3.org/2000/svg">
<path fill-rule="evenodd" clip-rule="evenodd" d="M14 4.3117C14 3.58727 13.4127 3 12.6883 3H11.3117C10.5873 3 10 3.58727 10 4.3117V4.56876C10 4.99658 9.71288 5.36825 9.31776 5.53229V5.53229C8.9225 5.6964 8.46228 5.63386 8.15966 5.33123L7.883 5.05458C7.30058 4.47215 6.35628 4.47215 5.77385 5.05458L5.05457 5.77386C4.47215 6.35628 4.47215 7.30058 5.05457 7.883L5.33123 8.15966C5.63386 8.46229 5.6964 8.9225 5.53229 9.31776V9.31776C5.36825 9.71288 4.99658 10 4.56877 10H4.3117C3.58727 10 3 10.5873 3 11.3117V12.6883C3 13.4127 3.58727 14 4.3117 14H4.71977C5.05799 14 5.35266 14.2259 5.47549 14.5411V14.5411C5.59352 14.8439 5.53726 15.1906 5.30742 15.4205L4.98904 15.7389C4.4428 16.2851 4.4428 17.1707 4.98904 17.717L5.95388 18.6818C6.43687 19.1648 7.21995 19.1648 7.70294 18.6818L7.74745 18.6373C8.12347 18.2613 8.69986 18.1978 9.18671 18.4117V18.4117C9.65509 18.6175 10 19.0609 10 19.5725V19.6883C10 20.4127 10.5873 21 11.3117 21H12.6883C13.4127 21 14 20.4127 14 19.6883V19.4312C14 19.0034 14.2871 18.6317 14.6822 18.4677V18.4677C15.0775 18.3036 15.5377 18.3661 15.8403 18.6688L15.9274 18.7559C16.3695 19.198 17.0863 19.198 17.5284 18.7559L18.7559 17.5284C19.198 17.0863 19.198 16.3695 18.7559 15.9274L18.6688 15.8403C18.3661 15.5377 18.3036 15.0775 18.4677 14.6822V14.6822C18.6317 14.2871 19.0034 14 19.4312 14H19.6883C20.4127 14 21 13.4127 21 12.6883V11.3117C21 10.5873 20.4127 10 19.6883 10H19.5725C19.0609 10 18.6175 9.65509 18.4117 9.18671V9.18671C18.1978 8.69986 18.2613 8.12347 18.6373 7.74745L18.6818 7.70295C19.1648 7.21996 19.1648 6.43689 18.6818 5.95391L17.7169 4.98904C17.1707 4.44281 16.2851 4.44281 15.7389 4.98904L15.4205 5.30742C15.1906 5.53726 14.8439 5.59352 14.5411 5.47549V5.47549C14.2259 5.35266 14 5.05799 14 4.71976V4.3117ZM12 15C13.6569 15 15 13.6569 15 12C15 10.3431 13.6569 9 12 9C10.3431 9 9 10.3431 9 12C9 13.6569 10.3431 15 12 15Z" stroke="#09090B" stroke-linejoin="round"/>
</svg>
