<svg width="17" height="16" viewBox="0 0 17 16" fill="none" xmlns="http://www.w3.org/2000/svg">
<path id="Union" fill-rule="evenodd" clip-rule="evenodd" d="M15.6286 0.731274C14.6523 -0.245062 13.0694 -0.245058 12.093 0.731276L1.23124 11.5933C0.762408 12.0622 0.499023 12.698 0.499023 13.3611V15.5008C0.499023 15.777 0.722881 16.0008 0.999023 16.0008H3.13869C3.80174 16.0008 4.43764 15.7374 4.90648 15.2686L15.7683 4.40649C16.7446 3.43018 16.7446 1.8473 15.7683 0.870989L15.6286 0.731274ZM12.8002 1.43838C13.386 0.852574 14.3357 0.852573 14.9215 1.43837L15.0612 1.57809C15.647 2.16387 15.647 3.1136 15.0612 3.69939L13.8608 4.8998L11.5998 2.63875L12.8002 1.43838ZM10.8927 3.34586L1.93835 12.3004C1.65705 12.5817 1.49902 12.9632 1.49902 13.3611V15.0008H3.13869C3.53652 15.0008 3.91806 14.8428 4.19937 14.5615L13.1537 5.60692L10.8927 3.34586Z" fill="#7F3FFC"/>
</svg>
