<svg width="21" height="16" viewBox="0 0 21 16" fill="none" xmlns="http://www.w3.org/2000/svg">
<g id="flags / CA">
<rect id="Mask" x="0.25" y="0.75" width="20.5" height="14.5" rx="1.75" fill="white" stroke="#F5F5F5" stroke-width="0.5"/>
<mask id="mask0_325_1891" style="mask-type:luminance" maskUnits="userSpaceOnUse" x="0" y="0" width="21" height="16">
<rect id="Mask_2" x="0.25" y="0.75" width="20.5" height="14.5" rx="1.75" fill="white" stroke="white" stroke-width="0.5"/>
</mask>
<g mask="url(#mask0_325_1891)">
<rect id="Mask_3" x="15" y="0.5" width="6" height="15" fill="#FF3131"/>
<path id="Rectangle 2" fill-rule="evenodd" clip-rule="evenodd" d="M0 15.5H6V0.5H0V15.5Z" fill="#FF3131"/>
<path id="Rectangle 66" fill-rule="evenodd" clip-rule="evenodd" d="M12.2676 7.23241C12.0376 7.46235 11.6491 7.25442 11.7129 6.93554L12 5.5L11 6L10.5 4.5L10 6L9 5.5L9.28711 6.93554C9.35088 7.25442 8.96235 7.46235 8.73241 7.23241C8.60405 7.10405 8.39595 7.10405 8.26759 7.23241L8 7.5L7 7L7.5 8L7.2357 8.2643C7.10553 8.39447 7.10553 8.60553 7.2357 8.7357L8.5 10H10L10.25 11.5H10.75L11 10H12.5L13.7643 8.7357C13.8945 8.60553 13.8945 8.39447 13.7643 8.2643L13.5 8L14 7L13 7.5L12.7324 7.23241C12.6041 7.10405 12.3959 7.10405 12.2676 7.23241Z" fill="#FF3131"/>
</g>
</g>
</svg>
