<svg width="24" height="24" viewBox="0 0 24 24" fill="none" xmlns="http://www.w3.org/2000/svg">
<path fill-rule="evenodd" clip-rule="evenodd" d="M15 21C18.0376 21 20.5 18.5376 20.5 15.5C20.5 12.4624 18.0376 10 15 10C11.9624 10 9.5 12.4624 9.5 15.5C9.5 18.5376 11.9624 21 15 21ZM14.0833 13.6667C13.5771 13.6667 13.1667 14.0771 13.1667 14.5833C13.1667 15.0896 13.5771 15.5 14.0833 15.5H15V17.3333H15.9167C16.4229 17.3333 16.8333 16.9229 16.8333 16.4167C16.8333 15.9104 16.4229 15.5 15.9167 15.5H15V13.6667H14.0833Z" fill="white"/>
<path d="M14.0833 13.6667C13.5771 13.6667 13.1667 14.0771 13.1667 14.5833C13.1667 15.0896 13.5771 15.5 14.0833 15.5H15V13.6667H14.0833Z" fill="white"/>
<path d="M15.9167 17.3333C16.4229 17.3333 16.8333 16.9229 16.8333 16.4167C16.8333 15.9104 16.4229 15.5 15.9167 15.5H15V17.3333H15.9167Z" fill="white"/>
<path d="M4.57131 14.2887L4.8631 14.6947L4.57131 14.2887ZM4.57131 17.7113L4.8631 17.3053L4.57131 17.7113ZM16.8333 14.1667C17.1095 14.1667 17.3333 13.9428 17.3333 13.6667C17.3333 13.3905 17.1095 13.1667 16.8333 13.1667V14.1667ZM13.1667 16.8333C12.8905 16.8333 12.6667 17.0572 12.6667 17.3333C12.6667 17.6095 12.8905 17.8333 13.1667 17.8333V16.8333ZM15.5 12.4444C15.5 12.1683 15.2761 11.9444 15 11.9444C14.7239 11.9444 14.5 12.1683 14.5 12.4444H15.5ZM14.5 18.5556C14.5 18.8317 14.7239 19.0556 15 19.0556C15.2761 19.0556 15.5 18.8317 15.5 18.5556H14.5ZM12 6C12 7.38071 10.8807 8.5 9.5 8.5V9.5C11.433 9.5 13 7.933 13 6H12ZM9.5 8.5C8.11929 8.5 7 7.38071 7 6H6C6 7.933 7.567 9.5 9.5 9.5V8.5ZM7 6C7 4.61929 8.11929 3.5 9.5 3.5V2.5C7.567 2.5 6 4.067 6 6H7ZM9.5 3.5C10.8807 3.5 12 4.61929 12 6H13C13 4.067 11.433 2.5 9.5 2.5V3.5ZM4 16C4 15.5886 4.25625 15.1308 4.8631 14.6947L4.27951 13.8827C3.53562 14.4173 3 15.1392 3 16H4ZM4.8631 14.6947C5.32388 14.3636 6.11821 14.0595 7.08693 13.8399C8.04295 13.6231 9.11703 13.5 10.0997 13.5V12.5C9.04087 12.5 7.89264 12.6318 6.86579 12.8646C5.85164 13.0946 4.90253 13.4349 4.27951 13.8827L4.8631 14.6947ZM10.5 18.5C9.51564 18.5 8.33826 18.3765 7.27737 18.158C6.19602 17.9353 5.31384 17.6292 4.8631 17.3053L4.27951 18.1173C4.91257 18.5723 5.97397 18.9106 7.07564 19.1375C8.19777 19.3686 9.44284 19.5 10.5 19.5V18.5ZM4.8631 17.3053C4.25625 16.8692 4 16.4114 4 16H3C3 16.8608 3.53562 17.5827 4.27951 18.1173L4.8631 17.3053ZM20 15.5C20 18.2614 17.7614 20.5 15 20.5V21.5C18.3137 21.5 21 18.8137 21 15.5H20ZM15 20.5C12.2386 20.5 10 18.2614 10 15.5H9C9 18.8137 11.6863 21.5 15 21.5V20.5ZM10 15.5C10 12.7386 12.2386 10.5 15 10.5V9.5C11.6863 9.5 9 12.1863 9 15.5H10ZM15 10.5C17.7614 10.5 20 12.7386 20 15.5H21C21 12.1863 18.3137 9.5 15 9.5V10.5ZM16.8333 13.1667H15V14.1667H16.8333V13.1667ZM15 13.1667H14.0833V14.1667H15V13.1667ZM15.5 13.6667V12.4444H14.5V13.6667H15.5ZM15.9167 16.8333H15V17.8333H15.9167V16.8333ZM15 16.8333H13.1667V17.8333H15V16.8333ZM14.5 17.3333V18.5556H15.5V17.3333H14.5ZM14.5 13.6667V15.5H15.5V13.6667H14.5ZM15 15H14.0833V16H15V15ZM14.5 15.5V17.3333H15.5V15.5H14.5ZM15 16H15.9167V15H15V16ZM16.3333 16.4167C16.3333 16.6468 16.1468 16.8333 15.9167 16.8333V17.8333C16.6991 17.8333 17.3333 17.1991 17.3333 16.4167H16.3333ZM17.3333 16.4167C17.3333 15.6343 16.6991 15 15.9167 15V16C16.1468 16 16.3333 16.1865 16.3333 16.4167H17.3333ZM12.6667 14.5833C12.6667 15.3657 13.3009 16 14.0833 16V15C13.8532 15 13.6667 14.8135 13.6667 14.5833H12.6667ZM13.6667 14.5833C13.6667 14.3532 13.8532 14.1667 14.0833 14.1667V13.1667C13.3009 13.1667 12.6667 13.8009 12.6667 14.5833H13.6667Z" fill="#7F3FFC"/>
</svg>
