<svg width="24" height="24" viewBox="0 0 24 24" fill="none" xmlns="http://www.w3.org/2000/svg">
<g id="Group">
<path id="Group_2" d="M16.9287 15.2887C17.5329 15.1055 18.2418 15 19 15C21.2091 15 23 15.8954 23 17C23 18.1046 21.2091 19 19 19C18.2418 19 17.5329 18.8945 16.9287 18.7113M16.9287 15.2887C15.8449 14.5098 14.0415 14 12 14C9.95848 14 8.1551 14.5098 7.07131 15.2887M16.9287 15.2887C17.6041 15.7741 18 16.3639 18 17C18 17.6361 17.6041 18.2259 16.9287 18.7113M16.9287 18.7113C15.8449 19.4902 14.0415 20 12 20C9.95848 20 8.1551 19.4902 7.07131 18.7113M7.07131 15.2887C6.46714 15.1055 5.7582 15 5 15C2.79086 15 1 15.8954 1 17C1 18.1046 2.79086 19 5 19C5.7582 19 6.46714 18.8945 7.07131 18.7113M7.07131 15.2887C6.39594 15.7741 6 16.3639 6 17C6 17.6361 6.39594 18.2259 7.07131 18.7113M15 7C15 8.65685 13.6569 10 12 10C10.3431 10 9 8.65685 9 7C9 5.34315 10.3431 4 12 4C13.6569 4 15 5.34315 15 7ZM21 10C21 11.1046 20.1046 12 19 12C17.8954 12 17 11.1046 17 10C17 8.89543 17.8954 8 19 8C20.1046 8 21 8.89543 21 10ZM7 10C7 11.1046 6.10457 12 5 12C3.89543 12 3 11.1046 3 10C3 8.89543 3.89543 8 5 8C6.10457 8 7 8.89543 7 10Z" stroke="#7F3FFC"/>
</g>
</svg>
