<svg width="24" height="24" viewBox="0 0 24 24" fill="none" xmlns="http://www.w3.org/2000/svg">
<path d="M14.4287 15.2887C15.0329 15.1055 15.7418 15 16.5 15C18.7091 15 20.5 15.8954 20.5 17C20.5 18.1046 18.7091 19 16.5 19C15.7418 19 15.0329 18.8945 14.4287 18.7113M14.4287 15.2887C13.3449 14.5098 11.5415 14 9.5 14C7.45848 14 5.6551 14.5098 4.57131 15.2887C3.89594 15.7741 3.5 16.3639 3.5 17C3.5 17.6361 3.89594 18.2259 4.57131 18.7113C5.6551 19.4902 7.45848 20 9.5 20C11.5415 20 13.3449 19.4902 14.4287 18.7113M14.4287 15.2887C15.1041 15.7741 15.5 16.3639 15.5 17C15.5 17.6361 15.1041 18.2259 14.4287 18.7113M12.5 7C12.5 8.65685 11.1569 10 9.5 10C7.84315 10 6.5 8.65685 6.5 7C6.5 5.34315 7.84315 4 9.5 4C11.1569 4 12.5 5.34315 12.5 7ZM18.5 10C18.5 11.1046 17.6046 12 16.5 12C15.3954 12 14.5 11.1046 14.5 10C14.5 8.89543 15.3954 8 16.5 8C17.6046 8 18.5 8.89543 18.5 10Z" stroke="#201522"/>
</svg>
