<svg width="20" height="20" viewBox="0 0 20 20" fill="none" xmlns="http://www.w3.org/2000/svg">
<path d="M15.9535 16.7497C15.584 15.7633 13.0594 14 10 14C6.94061 14 4.41603 15.7633 4.04654 16.7497M15.9535 16.7497C17.8217 15.1006 19 12.6879 19 10C19 5.02944 14.9706 1 10 1C5.02944 1 1 5.02944 1 10C1 12.6879 2.1783 15.1006 4.04654 16.7497M15.9535 16.7497C14.3669 18.1502 12.2827 19 10 19C7.71732 19 5.63313 18.1502 4.04654 16.7497M13 8C13 9.65685 11.6569 11 10 11C8.34315 11 7 9.65685 7 8C7 6.34315 8.34315 5 10 5C11.6569 5 13 6.34315 13 8Z" stroke="#9B9BB0" stroke-width="1.5"/>
</svg>
