<svg width="24" height="24" viewBox="0 0 24 24" fill="none" xmlns="http://www.w3.org/2000/svg">
<path fill-rule="evenodd" clip-rule="evenodd" d="M3.24782 12.8179C3.05675 12.2862 3.05675 11.7138 3.24782 11.1821C3.91159 9.33484 6.098 5 12 5C17.902 5 20.0884 9.33485 20.7522 11.1821C20.9433 11.7138 20.9433 12.2862 20.7522 12.8179C20.0884 14.6652 17.902 19 12 19C6.098 19 3.91159 14.6652 3.24782 12.8179ZM15 12C15 13.6569 13.6569 15 12 15C10.3431 15 9 13.6569 9 12C9 10.3431 10.3431 9 12 9C13.6569 9 15 10.3431 15 12Z" stroke="#DF371F" stroke-linecap="round" stroke-linejoin="round"/>
</svg>
