<svg width="24" height="24" viewBox="0 0 24 24" fill="none" xmlns="http://www.w3.org/2000/svg">
<g id="TicketPrice">
<path id="TicketPrice_2" d="M16 20H8C5.79086 20 4 18.2091 4 16V4L7 6L10 4L13 6L16 4V12M16 20V12M16 20V20C18.2091 20 20 18.2091 20 16V12H16M10 13H8.5C7.67157 13 7 12.3284 7 11.5V11.5C7 10.6716 7.67157 10 8.5 10H10M10 13H11.5C12.3284 13 13 13.6716 13 14.5V14.5C13 15.3284 12.3284 16 11.5 16H10M10 13V10M10 13V16M13 10H10M10 10V9M10 16H7M10 16V17" stroke="#7F3FFC" stroke-linecap="round" stroke-linejoin="round"/>
</g>
</svg>
