<svg width="24" height="24" viewBox="0 0 24 24" fill="none" xmlns="http://www.w3.org/2000/svg">
<path fill-rule="evenodd" clip-rule="evenodd" d="M2.5 12C2.5 7.30558 6.30558 3.5 11 3.5C15.3661 3.5 18.9634 6.79194 19.4452 11.0292L17.2774 9.58397C17.0476 9.4308 16.7372 9.49289 16.584 9.72265C16.4308 9.95241 16.4929 10.2628 16.7226 10.416L19.7227 12.416C19.9524 12.5692 20.2628 12.5071 20.416 12.2774L22.416 9.27735C22.5692 9.04759 22.5071 8.73715 22.2773 8.58397C22.0476 8.4308 21.7372 8.49289 21.584 8.72265L20.3855 10.5204C19.6749 5.97643 15.7434 2.5 11 2.5C5.75329 2.5 1.5 6.75329 1.5 12C1.5 17.2467 5.75329 21.5 11 21.5C13.0875 21.5 14.8114 20.9767 16.2149 20.041C17.6152 19.1074 18.6676 17.7829 19.4472 16.2236C19.5707 15.9766 19.4706 15.6763 19.2236 15.5528C18.9766 15.4293 18.6763 15.5294 18.5528 15.7764C17.8324 17.2171 16.8848 18.3926 15.6601 19.209C14.4386 20.0233 12.9125 20.5 11 20.5C6.30558 20.5 2.5 16.6944 2.5 12ZM11.5 7C11.5 6.72386 11.2761 6.5 11 6.5C10.7239 6.5 10.5 6.72386 10.5 7V8.5H9.5C8.39543 8.5 7.5 9.39543 7.5 10.5C7.5 11.6046 8.39543 12.5 9.5 12.5H10.5V14.5H8C7.72386 14.5 7.5 14.7239 7.5 15C7.5 15.2761 7.72386 15.5 8 15.5H10.5V17C10.5 17.2761 10.7239 17.5 11 17.5C11.2761 17.5 11.5 17.2761 11.5 17V15.5H12.5C13.6046 15.5 14.5 14.6046 14.5 13.5C14.5 12.3954 13.6046 11.5 12.5 11.5H11.5V9.5H14C14.2761 9.5 14.5 9.27614 14.5 9C14.5 8.72386 14.2761 8.5 14 8.5H11.5V7ZM9.5 9.5H10.5V11.5H9.5C8.94772 11.5 8.5 11.0523 8.5 10.5C8.5 9.94772 8.94772 9.5 9.5 9.5ZM11.5 14.5V12.5H12.5C13.0523 12.5 13.5 12.9477 13.5 13.5C13.5 14.0523 13.0523 14.5 12.5 14.5H11.5Z" fill="#7F3FFC"/>
</svg>
