<svg width="20" height="18" viewBox="0 0 20 18" fill="none" xmlns="http://www.w3.org/2000/svg">
<path d="M13 1.5H3C1.89543 1.5 1 2.39543 1 3.5V13.5H2.26756C2.61337 12.9022 3.25972 12.5 4 12.5M13 1.5V8.5M13 1.5V4.5M13 4.5H16C17.6569 4.5 19 5.84315 19 7.5V8.5M13 4.5V8.5M13 12.5C12.2597 12.5 11.6134 12.9022 11.2676 13.5M13 12.5C13.3643 12.5 13.7058 12.5974 14 12.7676C14.3036 12.9432 14.5568 13.1964 14.7324 13.5M13 12.5V8.5M11.2676 13.5C11.0974 13.7942 11 14.1357 11 14.5C11 15.6046 11.8954 16.5 13 16.5C14.1046 16.5 15 15.6046 15 14.5C15 14.1357 14.9026 13.7942 14.7324 13.5M11.2676 13.5H5.73244C5.38663 12.9022 4.74028 12.5 4 12.5M4 12.5C2.89543 12.5 2 13.3954 2 14.5C2 15.6046 2.89543 16.5 4 16.5C5.10457 16.5 6 15.6046 6 14.5C6 13.3954 5.10457 12.5 4 12.5ZM14.7324 13.5H18C18.5523 13.5 19 13.0523 19 12.5V8.5M19 8.5H13" stroke="#9B9BB0" stroke-width="1.5" stroke-linejoin="round"/>
</svg>
