<svg width="21" height="16" viewBox="0 0 21 16" fill="none" xmlns="http://www.w3.org/2000/svg">
<g id="flags / GB">
<rect id="Mask" y="0.5" width="21" height="15" rx="2" fill="white"/>
<mask id="mask0_341_1908" style="mask-type:luminance" maskUnits="userSpaceOnUse" x="0" y="0" width="21" height="16">
<rect id="Mask_2" y="0.5" width="21" height="15" rx="2" fill="white"/>
</mask>
<g mask="url(#mask0_341_1908)">
<rect id="Mask Copy" y="0.5" width="21" height="15" fill="#0A17A7"/>
<path id="Rectangle 2" fill-rule="evenodd" clip-rule="evenodd" d="M-0.961692 -0.9375L8.00016 5.10735V-0.500165H13.0002V5.10735L21.962 -0.9375L23.0804 0.720576L15.9949 5.49983H21.0002V10.4998H15.9949L23.0804 15.2791L21.962 16.9372L13.0002 10.8923V16.4998H8.00016V10.8923L-0.961692 16.9372L-2.08008 15.2791L5.00547 10.4998H0.000159502V5.49983H5.00547L-2.08008 0.720575L-0.961692 -0.9375Z" fill="white"/>
<path id="Line" d="M14.001 5.24915L23.5 -1" stroke="#DB1F35" stroke-width="0.666667" stroke-linecap="round"/>
<path id="Line Copy 2" d="M15.0098 10.7731L23.5251 16.5127" stroke="#DB1F35" stroke-width="0.666667" stroke-linecap="round"/>
<path id="Line Copy" d="M6.00433 5.23315L-2.87793 -0.75293" stroke="#DB1F35" stroke-width="0.666667" stroke-linecap="round"/>
<path id="Line Copy 3" d="M6.96771 10.7032L-2.87793 17.2324" stroke="#DB1F35" stroke-width="0.666667" stroke-linecap="round"/>
<path id="Rectangle 2 Copy 3" fill-rule="evenodd" clip-rule="evenodd" d="M0 9.5H9V15.5H12V9.5H21V6.5H12V0.5H9V6.5H0V9.5Z" fill="#E6273E"/>
</g>
</g>
</svg>
